Sprint_07200001_forces_filt15Hz.mot
version=1
nRows=24
nColumns=19
inDegrees=yes
endheader
time	R_ground_force_vx	R_ground_force_vy	R_ground_force_vz	R_ground_force_px	R_ground_force_py	R_ground_force_pz	R_ground_torque_x	R_ground_torque_y	R_ground_torque_z	L_ground_force_vx	L_ground_force_vy	L_ground_force_vz	L_ground_force_px	L_ground_force_py	L_ground_force_pz	L_ground_torque_x	L_ground_torque_y	L_ground_torque_z	
2.384500	  0.000000	  0.000000	  0.000000	  1.115646	  0.000000	 -0.258107	  0.000000	  0.000000	  0.000000	  0.000000	  0.000000	  0.000000	  0.151098	  0.000000	 -0.308469	  0.000000	  0.000000	  0.000000
2.385000	  0.000000	  0.000000	  0.000000	  1.117909	  0.000000	 -0.257982	  0.000000	  0.000000	  0.000000	  0.000000	  0.000000	  0.000000	  0.149956	  0.000000	 -0.308125	  0.000000	  0.000000	  0.000000
2.385500	  0.000000	  0.000000	  0.000000	  1.119920	  0.000000	 -0.257890	  0.000000	  0.000000	  0.000000	  0.000000	  0.000000	  0.000000	  0.148923	  0.000000	 -0.307919	  0.000000	  0.000000	  0.000000
2.386000	  0.000000	  0.000000	  0.000000	  1.121931	  0.000000	 -0.257799	  0.000000	  0.000000	  0.000000	  0.000000	  0.000000	  0.000000	  0.147890	  0.000000	 -0.307713	  0.000000	  0.000000	  0.000000
2.386500	  0.000000	  0.000000	  0.000000	  1.123941	  0.000000	 -0.257707	  0.000000	  0.000000	  0.000000	  0.000000	  0.000000	  0.000000	  0.146856	  0.000000	 -0.307507	  0.000000	  0.000000	  0.000000
2.387000	  0.000000	  0.000000	  0.000000	  1.125952	  0.000000	 -0.257615	  0.000000	  0.000000	  0.000000	  0.000000	  0.000000	  0.000000	  0.145823	  0.000000	 -0.307302	  0.000000	  0.000000	  0.000000
2.387500	  0.000000	  0.000000	  0.000000	  1.127962	  0.000000	 -0.257524	  0.000000	  0.000000	  0.000000	  0.000000	  0.000000	  0.000000	  0.144790	  0.000000	 -0.307096	  0.000000	  0.000000	  0.000000
2.388000	  0.000000	  0.000000	  0.000000	  1.129973	  0.000000	 -0.257432	  0.000000	  0.000000	  0.000000	  0.000000	  0.000000	  0.000000	  0.143757	  0.000000	 -0.306890	  0.000000	  0.000000	  0.000000
2.388500	  0.000000	  0.000000	  0.000000	  1.131984	  0.000000	 -0.257341	  0.000000	  0.000000	  0.000000	  0.000000	  0.000000	  0.000000	  0.142724	  0.000000	 -0.306684	  0.000000	  0.000000	  0.000000
2.389000	  0.000000	  0.000000	  0.000000	  1.133994	  0.000000	 -0.257249	  0.000000	  0.000000	  0.000000	  0.000000	  0.000000	  0.000000	  0.141691	  0.000000	 -0.306479	  0.000000	  0.000000	  0.000000
2.389500	  0.000000	  0.000000	  0.000000	  1.136005	  0.000000	 -0.257158	  0.000000	  0.000000	  0.000000	  0.000000	  0.000000	  0.000000	  0.140658	  0.000000	 -0.306273	  0.000000	  0.000000	  0.000000
2.390000	  0.000000	  0.000000	  0.000000	  1.138015	  0.000000	 -0.257066	  0.000000	  0.000000	  0.000000	  0.000000	  0.000000	  0.000000	  0.139625	  0.000000	 -0.306067	  0.000000	  0.000000	  0.000000
2.390500	  0.000000	  0.000000	  0.000000	  1.139742	  0.000000	 -0.257016	  0.000000	  0.000000	  0.000000	  0.000000	  0.000000	  0.000000	  0.138882	  0.000000	 -0.306057	  0.000000	  0.000000	  0.000000
2.391000	  0.000000	  0.000000	  0.000000	  1.141469	  0.000000	 -0.256967	  0.000000	  0.000000	  0.000000	  0.000000	  0.000000	  0.000000	  0.138138	  0.000000	 -0.306047	  0.000000	  0.000000	  0.000000
2.391500	  0.000000	  0.000000	  0.000000	  1.143196	  0.000000	 -0.256917	  0.000000	  0.000000	  0.000000	  0.000000	  0.000000	  0.000000	  0.137395	  0.000000	 -0.306038	  0.000000	  0.000000	  0.000000
2.392000	  0.000000	  0.000000	  0.000000	  1.144923	  0.000000	 -0.256867	  0.000000	  0.000000	  0.000000	  0.000000	  0.000000	  0.000000	  0.136652	  0.000000	 -0.306028	  0.000000	  0.000000	  0.000000
2.392500	  0.000000	  0.000000	  0.000000	  1.146649	  0.000000	 -0.256818	  0.000000	  0.000000	  0.000000	  0.000000	  0.000000	  0.000000	  0.135909	  0.000000	 -0.306018	  0.000000	  0.000000	  0.000000
2.393000	  0.000000	  0.000000	  0.000000	  1.148376	  0.000000	 -0.256768	  0.000000	  0.000000	  0.000000	  0.000000	  0.000000	  0.000000	  0.135166	  0.000000	 -0.306008	  0.000000	  0.000000	  0.000000
2.393500	  0.000000	  0.000000	  0.000000	  1.150103	  0.000000	 -0.256718	  0.000000	  0.000000	  0.000000	  0.000000	  0.000000	  0.000000	  0.134422	  0.000000	 -0.305998	  0.000000	  0.000000	  0.000000
2.394000	  0.000000	  0.000000	  0.000000	  1.151830	  0.000000	 -0.256669	  0.000000	  0.000000	  0.000000	  0.000000	  0.000000	  0.000000	  0.133679	  0.000000	 -0.305988	  0.000000	  0.000000	  0.000000
2.394500	  0.000000	  0.000000	  0.000000	  1.153557	  0.000000	 -0.256619	  0.000000	  0.000000	  0.000000	  0.000000	  0.000000	  0.000000	  0.132936	  0.000000	 -0.305979	  0.000000	  0.000000	  0.000000
2.395000	  0.000000	  0.000000	  0.000000	  1.155284	  0.000000	 -0.256569	  0.000000	  0.000000	  0.000000	  0.000000	  0.000000	  0.000000	  0.132193	  0.000000	 -0.305969	  0.000000	  0.000000	  0.000000
2.395500	  0.000000	  0.000000	  0.000000	  1.156681	  0.000000	 -0.256467	  0.000000	  0.000000	  0.000000	  0.000000	  0.000000	  0.000000	  0.131648	  0.000000	 -0.305928	  0.000000	  0.000000	  0.000000
2.396000	  0.000000	  0.000000	  0.000000	  1.158079	  0.000000	 -0.256364	  0.000000	  0.000000	  0.000000	  0.000000	  0.000000	  0.000000	  0.131103	  0.000000	 -0.305888	  0.000000	  0.000000	  0.000000
